<svg width="32" height="32" viewBox="0 0 32 32" fill="none" xmlns="http://www.w3.org/2000/svg">
<path d="M17.6446 16L17.291 16.3535L12.0223 21.6223C12.0222 21.6223 12.0222 21.6223 12.0222 21.6223C11.816 21.8286 11.7002 22.1083 11.7002 22.4C11.7002 22.6917 11.816 22.9714 12.0223 23.1777C12.2285 23.3838 12.5082 23.4997 12.7999 23.4997C13.0915 23.4997 13.3712 23.3838 13.5775 23.1776L17.6446 16ZM17.6446 16L17.291 15.6464L12.0256 10.381C11.8269 10.1738 11.7171 9.8972 11.7196 9.6101C11.7221 9.32168 11.8377 9.04579 12.0417 8.84184C12.2456 8.63789 12.5215 8.5222 12.81 8.51969C13.0971 8.5172 13.3737 8.62706 13.5809 8.82571L19.9774 15.2223C19.9775 15.2223 19.9775 15.2223 19.9775 15.2223C20.1837 15.4286 20.2995 15.7083 20.2995 16C20.2995 16.2916 20.1837 16.5714 19.9775 16.7776C19.9775 16.7777 19.9775 16.7777 19.9774 16.7777L13.5776 23.1776L17.6446 16Z" fill="#001416" stroke="#001416"/>
</svg>
