<svg width="32" height="32" viewBox="0 0 32 32" fill="none" xmlns="http://www.w3.org/2000/svg">
<path d="M14.3551 16L14.7087 15.6465L19.9774 10.3777C19.9775 10.3777 19.9775 10.3777 19.9775 10.3777C20.1837 10.1714 20.2995 9.89168 20.2995 9.60002C20.2995 9.30839 20.1837 9.0287 19.9776 8.82243C19.9775 8.8224 19.9775 8.82236 19.9774 8.82232M14.3551 16L19.9774 8.82232M14.3551 16L14.7087 16.3536L19.9741 21.619C20.1728 21.8262 20.2826 22.1028 20.2802 22.3899C20.2776 22.6783 20.162 22.9542 19.958 23.1582C19.7541 23.3621 19.4782 23.4778 19.1897 23.4803C18.9026 23.4828 18.626 23.373 18.4188 23.1743L12.0223 16.7777C12.0222 16.7777 12.0222 16.7777 12.0222 16.7777C11.816 16.5714 11.7002 16.2917 11.7002 16C11.7002 15.7083 11.816 15.4286 12.0223 15.2223L18.4222 8.82243M14.3551 16L18.4222 8.82243M19.9774 8.82232C19.7712 8.61617 19.4915 8.50037 19.1999 8.50037C18.9082 8.50037 18.6284 8.61621 18.4222 8.82243M19.9774 8.82232L18.4222 8.82243" fill="#001416" stroke="#001416"/>
</svg>
