<svg width="40" height="40" viewBox="0 0 40 40" fill="none" xmlns="http://www.w3.org/2000/svg">
<g clip-path="url(#clip0_462_2794)">
<path d="M-0.567383 4.08907C-0.434743 3.78234 -0.335259 3.45903 -0.16117 3.18546C0.336228 2.4145 1.06574 2 1.99422 2C14.0064 2 26.0185 2 38.0307 2C39.4317 2 40.5674 3.12744 40.5674 4.52015C40.5674 10.978 40.5674 17.4276 40.5674 23.8855C40.5674 25.2534 39.4566 26.4139 38.1219 26.4139C35.0297 26.4305 31.9376 26.4139 28.8454 26.4139C28.7957 26.4139 28.7377 26.4057 28.6796 26.3974C28.7874 25.9746 28.9035 25.5684 29.0195 25.1373C29.1687 25.1373 29.3097 25.1373 29.4589 25.1373C32.2194 25.1373 34.9717 25.1373 37.7323 25.1373C38.81 25.1373 39.2991 24.6482 39.2991 23.5622C39.2991 17.3199 39.2991 11.0775 39.2991 4.84346C39.2991 3.76576 38.81 3.27666 37.724 3.27666C25.9108 3.27666 14.1059 3.27666 2.29266 3.27666C1.21496 3.27666 0.725856 3.76576 0.725856 4.85175C0.725856 11.0941 0.725856 17.3364 0.725856 23.5705C0.725856 24.6482 1.21497 25.1373 2.30095 25.1373C5.06151 25.1373 7.81378 25.1373 10.5743 25.1373C10.7153 25.1373 10.8645 25.1373 11.0054 25.1373C11.1215 25.5684 11.2292 25.9663 11.3453 26.4222H10.9225C8.00444 26.4222 5.08638 26.4222 2.16831 26.4222C0.792174 26.4222 -0.0782715 25.7673 -0.49277 24.4326C-0.50106 24.3995 -0.534221 24.3663 -0.559091 24.3332C-0.559091 17.5851 -0.559091 10.8288 -0.559091 4.08078L-0.567383 4.08907Z" fill="#259BD4"/>
<path d="M28.3314 22.5757H33.8609C34.2422 21.0503 35.1624 20.1053 36.696 19.7239V8.71487C35.2121 8.34182 34.2505 7.41335 33.8691 5.8797H6.1475C5.77445 7.38019 4.84597 8.32524 3.32061 8.70658V19.7239C4.81281 20.097 5.76616 21.0338 6.1475 22.5674H11.6852C11.4862 23.0151 11.3121 23.4296 11.1215 23.8606C9.25623 23.8606 7.3827 23.8606 5.50916 23.8606C5.1527 23.8606 4.92058 23.6285 4.91229 23.2803C4.89571 22.07 4.00039 21.0172 2.61597 20.9674C2.20147 20.9509 2.0108 20.6856 2.0108 20.1882C2.0108 16.9634 2.0108 13.7303 2.0108 10.5055C2.0108 9.74283 2.0108 8.98015 2.0108 8.21747C2.0108 7.72837 2.20976 7.52112 2.70716 7.47967C3.93407 7.38019 4.77965 6.56777 4.89571 5.36573C4.96203 4.73569 5.11954 4.58647 5.75787 4.58647C13.766 4.58647 21.7741 4.58647 29.7822 4.58647C31.2827 4.58647 32.7832 4.58647 34.2836 4.58647C34.8888 4.58647 35.0712 4.75227 35.1209 5.34915C35.2287 6.53461 36.066 7.36361 37.2514 7.47967C37.8317 7.52941 38.0058 7.72008 38.0058 8.28379C38.0058 12.2464 38.0058 16.209 38.0058 20.1716C38.0058 20.7519 37.8317 20.9343 37.2597 20.984C36.0577 21.0918 35.2204 21.9374 35.1209 23.1477C35.0795 23.6866 34.8805 23.8772 34.3334 23.8772C32.6174 23.8772 30.9096 23.8772 29.1936 23.8772C28.9615 23.8772 28.8454 23.8109 28.7708 23.5788C28.663 23.2555 28.5055 22.9487 28.348 22.5923L28.3314 22.5757Z" fill="#259BD4"/>
<path d="M27.8423 24.8306C27.6185 25.386 27.4776 25.9414 27.1874 26.3974C26.7149 27.16 26.3667 27.9476 26.1926 28.8263C25.9522 30.0284 25.2227 30.7662 24.0207 31.0066C23.1419 31.1807 22.3461 31.5123 21.6 32.0097C20.5472 32.7226 19.4612 32.7143 18.4084 32.0097C17.6623 31.504 16.8581 31.189 15.9877 31.0066C14.8105 30.7662 14.0727 30.0367 13.8323 28.8512C13.6499 27.9642 13.3266 27.1518 12.8126 26.3891C12.108 25.3528 12.1163 24.2751 12.8126 23.2306C13.3183 22.4845 13.6416 21.6887 13.8157 20.8099C14.0561 19.6079 14.7939 18.8701 15.9877 18.6297C16.8664 18.4556 17.6623 18.1323 18.4084 17.6266C19.4446 16.9219 20.5223 16.9054 21.5585 17.61C22.3295 18.124 23.1502 18.4556 24.0538 18.638C25.1978 18.8784 25.9191 19.5913 26.1595 20.7436C26.3501 21.6638 26.6983 22.4928 27.204 23.2803C27.4859 23.728 27.6185 24.2751 27.834 24.8223L27.8423 24.8306ZM26.4828 24.8306C26.3667 24.5487 26.3087 24.2668 26.1512 24.043C25.5211 23.1145 25.0984 22.1032 24.8911 20.9923C24.7833 20.4037 24.4103 20.039 23.8217 19.9312C22.7274 19.7239 21.7243 19.3177 20.8124 18.6877C20.2736 18.3064 19.7099 18.3229 19.171 18.696C18.2674 19.326 17.2809 19.7239 16.1949 19.9229C15.598 20.039 15.2167 20.4037 15.1007 21.0089C14.8934 22.1032 14.4872 23.1063 13.8489 24.0181C13.4841 24.5487 13.4841 25.0958 13.8489 25.6264C14.4789 26.5383 14.8934 27.5414 15.1007 28.6357C15.2167 29.2408 15.5898 29.6056 16.1949 29.7216C17.2726 29.9206 18.2674 30.3268 19.171 30.9486C19.7265 31.3382 20.2985 31.3299 20.8456 30.9403C21.7326 30.3185 22.7191 29.9289 23.7802 29.7216C24.402 29.6056 24.7833 29.2325 24.8994 28.6108C25.0984 27.5331 25.5129 26.5466 26.1263 25.6347C26.2838 25.4026 26.3584 25.1041 26.4745 24.8223L26.4828 24.8306Z" fill="#259BD4"/>
<path d="M17.4301 36.2956C17.9524 36.0303 18.4084 35.7899 18.8726 35.5578C20.2073 34.8946 19.7845 34.8697 21.1606 35.5661C21.6083 35.7899 22.0559 36.022 22.5782 36.2873C22.5782 35.6987 22.5782 35.1682 22.5782 34.6376V33.5931C22.5782 32.8304 22.6943 32.6812 23.4404 32.4656C23.5647 32.4325 23.6973 32.4076 23.8631 32.3661C23.8631 32.6729 23.8631 32.9547 23.8631 33.2366C23.8631 34.5713 23.8631 35.9142 23.8631 37.2489C23.8631 37.8873 23.4072 38.1774 22.8352 37.8873C21.9896 37.4645 21.1523 37.0085 20.2985 36.594C20.141 36.5194 19.8757 36.5111 19.7182 36.594C18.8892 36.992 18.0768 37.4313 17.256 37.8458C16.5763 38.1857 16.1452 37.9287 16.1452 37.1826C16.1452 35.5909 16.1452 33.9993 16.1452 32.2915C16.5763 32.4905 16.9493 32.648 17.2975 32.847C17.3804 32.8884 17.4218 33.0708 17.4218 33.1869C17.4301 34.0739 17.4218 34.9526 17.4218 35.8396C17.4218 35.9723 17.4218 36.0966 17.4218 36.3039L17.4301 36.2956Z" fill="#259BD4"/>
<path d="M25.4631 11.2848C25.4631 10.9615 25.4631 10.6381 25.4631 10.3231C25.4797 9.27859 26.3087 8.4413 27.3532 8.43301C28.0247 8.43301 28.6879 8.43301 29.3594 8.43301C30.3874 8.4413 31.2246 9.2703 31.2412 10.29C31.2495 10.9697 31.2495 11.6578 31.2412 12.3376C31.2246 13.3655 30.3956 14.1945 29.376 14.2111C28.6962 14.2194 28.0081 14.2194 27.3284 14.2111C26.3087 14.1945 25.4797 13.3573 25.4631 12.3293C25.4631 11.9811 25.4631 11.6329 25.4631 11.2848ZM28.3812 9.70967C28.091 9.70967 27.7926 9.70967 27.5024 9.70967C27.005 9.71796 26.7564 9.95837 26.7481 10.4475C26.7398 11.0361 26.7398 11.6247 26.7481 12.2132C26.7564 12.6775 27.0133 12.9179 27.4776 12.9262C28.0662 12.9345 28.6548 12.9345 29.2351 12.9262C29.691 12.9179 29.9397 12.6609 29.948 12.1967C29.9563 11.6081 29.9563 11.0195 29.948 10.4309C29.9397 9.96666 29.6827 9.72625 29.2185 9.71796C28.9366 9.70967 28.6548 9.71796 28.3812 9.71796V9.70967Z" fill="#259BD4"/>
<path d="M16.4436 9.39465C14.1142 9.39465 11.7847 9.39465 9.45519 9.39465C9.01582 9.39465 8.75054 9.13766 8.75883 8.74803C8.75883 8.37498 9.02411 8.13457 9.43861 8.11799C9.54638 8.11799 9.65415 8.11799 9.76192 8.11799C13.7162 8.11799 17.6623 8.11799 21.6166 8.11799C22.1554 8.11799 22.686 8.11799 23.2248 8.11799C23.8963 8.11799 24.1782 8.30037 24.1865 8.74803C24.1865 9.20398 23.9046 9.40294 23.2414 9.40294C20.9782 9.40294 18.7151 9.40294 16.4519 9.40294L16.4436 9.39465Z" fill="#259BD4"/>
<path d="M16.4851 13.2495C18.798 13.2495 21.1192 13.2412 23.4321 13.2661C23.6559 13.2661 23.9543 13.4319 24.0787 13.6142C24.1782 13.7635 24.1533 14.1282 24.029 14.2609C23.8797 14.4267 23.573 14.5261 23.3326 14.5261C19.6518 14.5427 15.9711 14.5344 12.2821 14.5344C11.395 14.5344 10.5163 14.5344 9.62928 14.5344C9.0324 14.5344 8.75054 14.3355 8.75054 13.9044C8.75054 13.4567 9.02411 13.2495 9.65415 13.2495C11.9339 13.2495 14.2053 13.2495 16.4851 13.2495Z" fill="#259BD4"/>
<path d="M20 11.9645C18.8726 11.9645 17.7534 11.9645 16.626 11.9645C16.1037 11.9645 15.8302 11.749 15.8219 11.3345C15.8219 10.92 16.0955 10.6879 16.6011 10.6796C18.8643 10.6796 21.1275 10.6796 23.3906 10.6796C23.8963 10.6796 24.1782 10.9117 24.1699 11.3262C24.1699 11.7407 23.888 11.9562 23.3658 11.9562C22.2383 11.9562 21.1192 11.9562 19.9917 11.9562L20 11.9645Z" fill="#259BD4"/>
<path d="M11.6272 11.9645C10.9142 11.9645 10.2096 11.9645 9.49664 11.9645C9.02411 11.9645 8.75054 11.7158 8.75883 11.3096C8.75883 10.92 9.0324 10.6796 9.48006 10.6796C10.9225 10.6796 12.3733 10.6796 13.8157 10.6796C14.2634 10.6796 14.5286 10.92 14.5369 11.3096C14.5369 11.7158 14.2717 11.9562 13.7991 11.9562C13.0779 11.9562 12.3567 11.9562 11.6272 11.9562V11.9645Z" fill="#259BD4"/>
<path d="M8.73396 16.781C8.23656 16.781 7.73916 16.781 7.25006 16.781C6.77753 16.781 6.50396 16.5323 6.51225 16.1344C6.51225 15.7448 6.78582 15.5044 7.23348 15.5044C8.25314 15.5044 9.27281 15.5044 10.2842 15.5044C10.7318 15.5044 10.9971 15.7448 11.0054 16.1344C11.0054 16.5406 10.7401 16.781 10.2676 16.7893C9.76192 16.7893 9.24794 16.7893 8.74225 16.7893L8.73396 16.781Z" fill="#259BD4"/>
<path d="M31.2329 16.781C30.7272 16.781 30.2133 16.781 29.7076 16.781C29.2682 16.781 29.0029 16.524 29.0029 16.1344C29.0029 15.7448 29.2765 15.5044 29.7159 15.4961C30.7355 15.4961 31.7552 15.4961 32.7666 15.4961C33.2142 15.4961 33.4878 15.7365 33.4961 16.1178C33.5044 16.524 33.2308 16.7727 32.7583 16.7727C32.2526 16.7727 31.7386 16.7727 31.2329 16.7727V16.781Z" fill="#259BD4"/>
<path d="M8.71738 19.3592C8.21169 19.3592 7.69771 19.3592 7.19203 19.3592C6.77753 19.3592 6.51225 19.1105 6.50396 18.7374C6.49567 18.3478 6.76095 18.0825 7.19203 18.0825C8.23656 18.0825 9.2811 18.0825 10.3256 18.0825C10.7318 18.0825 10.9971 18.3478 10.9971 18.7209C10.9971 19.0939 10.7318 19.3509 10.3256 19.3592C9.78679 19.3675 9.25623 19.3592 8.71738 19.3592Z" fill="#259BD4"/>
<path d="M31.2827 18.0742C31.7884 18.0742 32.3023 18.0742 32.808 18.0742C33.2225 18.0742 33.4878 18.3229 33.4961 18.696C33.5044 19.0939 33.2391 19.3509 32.7997 19.3509C31.7718 19.3509 30.7355 19.3509 29.7076 19.3509C29.2682 19.3509 29.0029 19.0939 29.0029 18.7043C29.0029 18.3147 29.2682 18.0742 29.7159 18.066C30.2381 18.066 30.7604 18.066 31.2827 18.066V18.0742Z" fill="#259BD4"/>
<path d="M20.0166 20.6441C22.3295 20.6441 24.1782 22.5094 24.1782 24.8389C24.1782 27.1518 22.3046 29.0087 19.9834 29.0004C17.654 29.0004 15.8136 27.1186 15.8219 24.7642C15.8219 22.4845 17.7037 20.6441 20.0166 20.6441ZM19.942 27.7155C21.5171 27.7486 22.8518 26.4637 22.8932 24.8803C22.9347 23.3135 21.6414 21.9622 20.0581 21.9291C18.483 21.8959 17.1483 23.1809 17.1068 24.7642C17.0654 26.3311 18.3669 27.6823 19.942 27.7155Z" fill="#259BD4"/>
</g>
<defs>
<clipPath id="clip0_462_2794">
<rect width="40" height="40" fill="white"/>
</clipPath>
</defs>
</svg>
