<svg width="40" height="40" viewBox="0 0 40 40" fill="none" xmlns="http://www.w3.org/2000/svg">
<path d="M7.39977 26.3947C7.11684 26.2979 6.9307 26.2235 6.73712 26.1639C6.34995 26.0522 6.1787 25.7916 6.18615 25.397C6.18615 24.7269 6.18615 24.0494 6.18615 23.3569C5.71708 23.2676 5.27779 23.1857 4.84595 23.1038C4.24286 22.9995 4.06417 22.7538 4.17585 22.1507C4.42156 20.7882 5.10654 19.6342 5.94789 18.5694C5.96278 18.5471 5.97767 18.5322 5.99256 18.5099C7.7646 16.2911 7.38488 16.4251 7.34765 14.3404C7.30298 11.7344 7.6827 9.21785 8.85165 6.86506C10.512 3.5369 13.2371 1.51172 16.796 0.60336C19.7147 -0.141193 22.6706 -0.245431 25.5818 0.566133C30.8904 2.04779 34.0995 5.62165 35.3727 10.8856C36.4895 15.5093 35.6705 19.8426 32.9007 23.759C32.1413 24.8386 31.218 25.7618 30.1682 26.566C29.9746 26.7149 29.9076 26.8712 29.9002 27.1095C29.8183 30.0579 30.4884 32.8574 31.4712 35.6048C31.7541 36.3941 31.9998 37.1907 32.2232 38.0023C32.4168 38.7096 32.1636 39 31.4265 39C26.0136 39 20.6082 39 15.1952 39C14.5103 39 14.3092 38.799 14.339 38.1065C14.3911 36.9376 14.7187 35.8356 15.1133 34.7411C15.3144 34.1902 15.508 33.6392 15.6643 33.0808C15.9026 32.2171 15.5452 31.7555 14.6592 31.8895C13.5721 32.0533 12.4925 32.3214 11.4129 32.5373C10.5865 32.7085 9.76001 32.8649 8.91866 32.649C8.34535 32.5 7.93585 32.1799 7.80183 31.5396C7.58591 30.5419 7.22852 29.5963 6.61799 28.7549C6.47652 28.5539 6.39462 28.3008 6.33506 28.0551C6.22338 27.6009 6.29783 27.2063 6.73712 26.9233C6.94559 26.7893 7.13173 26.6106 7.39233 26.3947H7.39977ZM30.9053 37.764C30.7341 37.2652 30.5852 36.7812 30.4139 36.3047C29.2971 33.2223 28.5451 30.0802 28.694 26.767C28.7163 26.3351 28.8504 26.0522 29.1929 25.7693C29.9002 25.1736 30.6373 24.578 31.218 23.8707C34.509 19.8873 35.395 15.3455 33.9878 10.4166C32.7742 6.18007 30.064 3.24653 25.8126 1.92122C22.5365 0.893736 19.2307 1.04265 15.9919 2.14459C13.0286 3.14973 10.929 5.14514 9.693 8.02656C8.71019 10.3198 8.46448 12.7396 8.63573 15.2041C8.71019 16.2911 8.47193 17.2441 7.85395 18.1153C7.41466 18.7258 6.94559 19.3065 6.50631 19.9171C6.05957 20.5351 5.69474 21.1903 5.51605 21.9646C5.95534 22.0465 6.36484 22.1284 6.77435 22.2103C7.25831 22.3071 7.41466 22.4858 7.42955 22.9921C7.44444 23.4239 7.47423 23.8632 7.42955 24.2876C7.37743 24.8386 7.47423 25.2555 8.09965 25.3672C8.15922 25.3747 8.21133 25.4268 8.26345 25.464C8.8442 25.8437 8.95589 26.4245 8.53149 26.9606C8.32302 27.2286 8.06987 27.4669 7.79438 27.6753C7.57846 27.8391 7.57102 27.9732 7.71993 28.1742C8.3528 29.023 8.71763 29.9983 8.95589 31.0184C9.04523 31.4056 9.25371 31.5396 9.58876 31.5098C10.1174 31.4651 10.6535 31.413 11.1747 31.3162C12.2989 31.1077 13.4083 30.8248 14.5326 30.6387C15.8579 30.4227 17.3172 31.4428 16.9226 33.0957C16.7365 33.87 16.4387 34.6146 16.2078 35.3815C15.977 36.1558 15.7686 36.9301 15.5303 37.7566H30.8979L30.9053 37.764Z" fill="#259BD4"/>
<path d="M20.221 5.15258C21.8218 3.3731 24.5022 3.58157 25.82 5.59932C26.572 5.4653 27.2942 5.5472 27.9495 5.99393C28.6791 6.49278 29.0588 7.19266 29.1556 8.06379C29.1705 8.18292 29.2599 8.34672 29.3641 8.39884C30.1236 8.78601 30.5107 9.40399 30.6001 10.2453C30.615 10.3794 30.7192 10.5432 30.8309 10.6176C32.588 11.7717 32.8114 14.0426 31.3223 15.5168C31.2478 15.5912 31.1734 15.7327 31.1957 15.8146C31.5829 17.3782 31.3446 18.0631 30.0938 19.0013C30.2501 19.6863 30.4437 20.3564 30.5479 21.0339C30.6373 21.6221 30.6522 22.2252 30.6745 22.8208C30.682 23.1931 30.4363 23.4612 30.064 23.4686C29.379 23.4835 28.6866 23.4835 28.0016 23.4686C27.6367 23.4612 27.4134 23.2527 27.3761 22.873C27.3613 22.7241 27.3464 22.5677 27.3315 22.4188C27.2794 21.8827 27.0188 21.4732 26.5125 21.2722C26.0881 21.1009 25.6562 20.952 25.2169 20.818C24.4798 20.5872 23.8023 20.2521 23.2811 19.649C23.2215 19.5746 23.0577 19.5299 22.9684 19.5523C22.3281 19.7161 21.7399 19.6267 21.1666 19.3066C21.0549 19.247 20.8762 19.2321 20.7496 19.2768C19.1414 19.7682 17.5927 19.1874 16.7365 17.7504C16.6173 17.542 16.5057 17.5196 16.2823 17.5643C14.5177 17.9068 13.0137 17.4079 11.8745 16.0305C10.7354 14.6531 10.5269 13.0895 11.1747 11.4143C11.2491 11.2207 11.2715 10.975 11.2193 10.774C10.8173 9.2104 11.8745 7.67662 13.4753 7.52026C13.5945 7.50537 13.7583 7.40114 13.8104 7.2969C14.8155 4.97389 17.6597 3.7975 20.1316 5.11536C20.154 5.1228 20.1763 5.13025 20.221 5.13769V5.15258ZM28.8429 9.5529C28.6568 9.76882 28.5004 9.99218 28.3143 10.1709C28.0537 10.424 27.6963 10.424 27.458 10.2007C27.2123 9.96985 27.19 9.62735 27.4208 9.34442C27.4804 9.26252 27.5623 9.19551 27.6219 9.11361C28.0165 8.60731 28.0165 7.89999 27.6442 7.37135C27.257 6.82783 26.572 6.64169 25.9094 6.88739C25.351 7.09587 25.1499 7.00652 24.8819 6.47789C24.7925 6.2992 24.6809 6.1205 24.5543 5.96415C23.6906 4.91433 21.9335 4.91433 21.241 5.96415C21.2783 6.00882 21.3229 6.06094 21.3602 6.10561C21.6133 6.42577 21.6133 6.79805 21.3453 7.02886C21.0772 7.25967 20.7273 7.22244 20.4295 6.92462C20.3848 6.87995 20.3401 6.83528 20.2954 6.7906C19.3796 5.88969 18.2777 5.60676 17.0641 5.9567C15.843 6.30664 15.0761 7.14799 14.7932 8.39139C14.7336 8.6371 14.7411 8.89769 14.7038 9.14339C14.6443 9.49333 14.3986 9.70181 14.071 9.68692C13.7285 9.67203 13.5349 9.47844 13.4828 9.15084C13.4604 9.0466 13.4604 8.93492 13.4455 8.82323C12.9095 8.92003 12.5223 9.29975 12.433 9.80604C12.3287 10.4017 12.5223 10.8782 13.0286 11.2281C13.3115 11.4217 13.4307 11.6898 13.2669 12.0248C13.1179 12.3375 12.8499 12.4194 12.5297 12.3375C12.433 12.3152 12.3436 12.2556 12.217 12.2035C12.1724 12.4492 12.1202 12.68 12.0905 12.9183C11.8373 15.0179 14.0114 16.9091 16.0515 16.3581C16.1557 16.3283 16.2823 16.1869 16.3046 16.0677C16.394 15.688 16.595 15.4721 16.9301 15.4795C17.2726 15.4795 17.5406 15.7401 17.5406 16.1273C17.5406 17.6164 19.2158 18.7854 20.7347 17.9366C21.0474 17.7579 21.3229 17.81 21.6059 18.0483C21.7771 18.1972 22.0079 18.3386 22.2238 18.3759C22.8493 18.4727 23.2737 18.0929 23.363 17.4005C23.4151 16.9984 23.6981 16.7453 24.048 16.7825C24.3905 16.8197 24.6213 17.0952 24.5841 17.4898C24.5543 17.7877 24.5171 18.1227 24.3607 18.361C24.1001 18.7556 24.2565 18.9938 24.5692 19.1576C25.0755 19.4108 25.5967 19.6565 26.1402 19.8203C27.391 20.1926 28.3738 20.8031 28.56 22.2178H29.3716C29.4535 21.3764 29.178 20.0958 28.7238 19.1725C28.3887 18.4875 28.5079 18.2121 29.2375 18.0036C29.9895 17.7877 30.3469 16.9984 30.0044 16.2762C29.7811 16.2986 29.5577 16.3283 29.3269 16.3358C28.895 16.3507 28.6344 16.1348 28.6196 15.7699C28.6047 15.3976 28.8355 15.1519 29.2524 15.1073C30.2501 15.0179 30.9351 14.3999 31.0617 13.499C31.1808 12.6205 30.6671 11.8387 29.7587 11.4962C29.3045 11.3249 29.1854 11.1016 29.2971 10.6102C29.4162 10.1039 29.2896 9.80604 28.8429 9.5529Z" fill="#259BD4"/>
<path d="M19.5062 10.2453C19.3052 10.0369 19.1265 10.0592 18.8808 10.223C18.2181 10.6623 17.3917 10.5804 16.796 10.0592C16.193 9.53056 16.0217 8.68921 16.3716 7.97444C16.7141 7.25967 17.4512 6.88739 18.2703 6.99908C18.9999 7.10331 19.6253 7.72129 19.6849 8.48818C19.7147 8.86791 19.8934 9.03171 20.1986 9.17317C20.8092 9.4561 21.2931 9.40399 21.7473 8.93492C21.8143 8.86791 21.8292 8.73389 21.8292 8.6222C21.8516 7.65428 22.5217 6.89484 23.4077 6.82783C24.3607 6.76082 25.1723 7.37135 25.3286 8.25737C25.485 9.18062 24.9415 10.0369 23.9959 10.2677C23.6683 10.3496 23.631 10.558 23.5789 10.8559C24.0108 11.0718 24.4426 11.3026 24.8893 11.5036C24.9712 11.5409 25.1201 11.4664 25.2095 11.4068C25.8573 11.0048 26.5125 10.9899 27.1528 11.4068C27.7931 11.8238 28.0537 12.4492 27.9197 13.1863C27.8005 13.8936 27.3538 14.3627 26.6539 14.5712C25.8945 14.7946 25.068 14.4595 24.666 13.7373C24.5468 13.5214 24.4203 13.4618 24.1895 13.4692C23.7204 13.4841 23.2513 13.4692 22.7971 13.4692C22.5887 13.8713 22.5663 14.1691 22.8939 14.534C23.4077 15.0998 23.3779 15.9635 22.9312 16.5889C22.477 17.2218 21.6654 17.4824 20.9358 17.2367C20.1689 16.9761 19.7147 16.306 19.7445 15.4795C19.7743 14.7275 20.3029 14.0574 21.04 13.8713C21.241 13.8192 21.4644 13.8192 21.4197 13.4692C21.174 13.4692 20.9283 13.4692 20.6752 13.4692C20.0795 13.4692 19.4764 13.4767 18.8808 13.4618C18.3819 13.4469 17.9948 13.4841 17.6448 13.983C17.1162 14.735 16.0217 14.7871 15.2846 14.2212C14.5698 13.6703 14.3837 12.6651 14.8676 11.8982C15.3516 11.1165 16.3568 10.8261 17.1683 11.2728C17.414 11.4068 17.5853 11.4143 17.8161 11.2654C18.3522 10.9229 18.9031 10.6102 19.4541 10.29C19.4764 10.2751 19.4913 10.2528 19.5062 10.2379V10.2453ZM18.7766 12.1365C18.7766 12.1365 18.7914 12.1886 18.7989 12.2184C18.9329 12.2184 19.0595 12.2407 19.1935 12.2407C19.8562 12.2482 20.5114 12.2556 21.174 12.2631C21.6257 12.268 21.9136 12.0596 22.0377 11.6376C22.0377 11.6376 22.0377 11.5632 22.0377 11.4962C21.6952 11.3249 21.3527 11.1388 21.0028 10.975C20.9358 10.9452 20.8241 10.9452 20.7645 10.975C20.1019 11.3547 19.4392 11.7493 18.784 12.1365H18.7766ZM26.7135 12.9034C26.7135 12.6205 26.4752 12.3599 26.1923 12.3599C25.9094 12.3599 25.6413 12.613 25.6637 12.8959C25.686 13.1938 25.8573 13.3873 26.1625 13.4171C26.4455 13.4395 26.6986 13.1863 26.706 12.9034H26.7135ZM24.115 8.58498C24.115 8.30205 23.8544 8.0489 23.5715 8.06379C23.2588 8.07868 23.0875 8.27226 23.0577 8.57009C23.028 8.84557 23.296 9.10616 23.5789 9.11361C23.8619 9.11361 24.115 8.86791 24.115 8.58498ZM21.4942 16.105C21.792 16.105 22.0377 15.8667 22.0303 15.5763C22.0303 15.2934 21.792 15.0775 21.5091 15.0775C21.2187 15.0775 20.9953 15.2785 20.9804 15.5614C20.9655 15.8593 21.1889 16.0975 21.4942 16.0975V16.105ZM18.4713 8.74133C18.4713 8.43607 18.2479 8.2127 17.9427 8.22015C17.6523 8.22759 17.4438 8.44351 17.4438 8.73389C17.4438 9.03915 17.6746 9.26997 17.9724 9.26252C18.2554 9.25507 18.4713 9.03171 18.4713 8.74133ZM16.3716 12.3301C16.0738 12.3301 15.8653 12.5237 15.8505 12.814C15.8356 13.1268 16.044 13.3501 16.3568 13.3576C16.662 13.3576 16.8854 13.1416 16.8779 12.8364C16.8779 12.546 16.662 12.3375 16.3716 12.3301Z" fill="#259BD4"/>
</svg>
