<svg width="40" height="40" viewBox="0 0 40 40" fill="none" xmlns="http://www.w3.org/2000/svg">
<g clip-path="url(#clip0_462_2787)">
<path d="M39.9856 40C28.5849 40 17.1842 40 5.78344 40C2.98175 40 0.726021 38.1893 0.12258 35.459C-0.545516 32.4268 1.59527 29.2581 4.64839 28.7552C4.81362 28.7264 4.97885 28.6977 5.18718 28.6546C5.10816 28.5612 5.05069 28.4821 4.98603 28.4103C3.74323 27.0092 3.39122 25.3997 4.09523 23.668C4.79207 21.9436 6.13545 20.9952 8.01761 20.8514C8.1972 20.8371 8.38398 20.8371 8.56357 20.8371C14.0951 20.8371 19.6267 20.8371 25.1582 20.8371C25.3234 20.8371 25.4887 20.8371 25.6755 20.8371V22.0226C25.5102 22.0226 25.3522 22.0226 25.1869 22.0226C19.5548 22.0226 13.9155 22.0226 8.28341 22.0226C6.65268 22.0226 5.23028 23.2226 5.00758 24.7602C4.69868 26.8726 6.19291 28.6258 8.34088 28.6546C9.94287 28.6689 11.5449 28.6546 13.1469 28.6546C13.3049 28.6546 13.4558 28.6546 13.6425 28.6546V29.8401C13.5132 29.8401 13.3696 29.8401 13.2331 29.8401C10.7331 29.8401 8.23312 29.8401 5.73315 29.8401C3.55645 29.8401 1.78923 31.2772 1.30073 33.404C0.733205 35.8901 2.50761 38.4264 5.0435 38.757C5.35241 38.8001 5.66132 38.8216 5.9774 38.8216C16.7531 38.8216 27.5289 38.8216 38.3046 38.8216C38.4483 38.8216 38.592 38.8216 38.7644 38.8216V37.6576H34.49V36.4793H37.5144V35.3224H11.5808V34.1369H37.5144V32.1681C37.3707 32.1681 37.2486 32.1681 37.1193 32.1681C26.6668 32.1681 16.2143 32.1681 5.76907 32.1681C4.84954 32.1681 4.1527 32.5705 3.75759 33.3968C3.38403 34.18 3.47743 34.9488 4.00903 35.6386C4.44725 36.2134 5.06506 36.4649 5.78344 36.4649C6.9544 36.4649 8.12536 36.4649 9.29633 36.4649C17.1339 36.4649 24.9643 36.4649 32.8018 36.4649C32.9598 36.4649 33.1107 36.4649 33.2975 36.4649V37.6217C33.161 37.6217 33.0317 37.6361 32.9096 37.6361C23.8508 37.6361 14.7919 37.6361 5.73315 37.6361C3.95874 37.6361 2.54353 36.3499 2.37112 34.5895C2.20589 32.9298 3.39841 31.3634 5.10816 31.0401C5.39551 30.9826 5.70441 30.9969 6.00613 30.9969C16.7531 30.9969 27.5073 30.9969 38.2543 30.9969H38.7787V29.8473H14.871V28.6546H35.0216V27.4906C34.8492 27.4906 34.684 27.4906 34.5187 27.4906C25.8119 27.4906 17.1051 27.4906 8.39835 27.4906C7.2202 27.4906 6.37251 26.8008 6.14981 25.6799C5.93429 24.5662 6.77481 23.3519 7.89548 23.2226C8.44864 23.1579 9.00898 23.2082 9.59087 23.2082V24.365C9.17421 24.365 8.75754 24.365 8.34806 24.365C7.7518 24.365 7.3567 24.7243 7.32078 25.2632C7.28486 25.8164 7.65842 26.2332 8.25468 26.2978C8.36962 26.3122 8.49173 26.305 8.60668 26.305C16.8465 26.305 25.0864 26.305 33.319 26.305H33.7716V24.3722H10.8121V23.1795C10.9989 23.1795 11.1641 23.1795 11.3294 23.1795C19.0376 23.1795 26.7387 23.1795 34.4469 23.1795C35.1365 23.1795 35.0503 23.2657 35.0575 22.5831C35.0575 22.4178 35.0575 22.2526 35.0575 22.037H26.9039V20.8586H36.2141V24.3578H35.0216V26.2978H36.2285V28.6689H40V32.1825H38.7715V36.4793H40V39.9928L39.9856 40Z" fill="#259BD4"/>
<path d="M20.1511 0.0071852C21.1999 0.37363 22.2488 0.740075 23.3048 1.09934C24.9499 1.6526 26.6022 2.19867 28.2544 2.75193C28.3766 2.79504 28.4987 2.83815 28.6567 2.89564C28.5346 3.26208 28.4197 3.61416 28.2904 4.00934C27.5145 3.75067 26.753 3.50638 25.9915 3.2549C24.095 2.6226 22.2057 1.98311 20.3019 1.358C20.1439 1.30771 19.9428 1.28615 19.7847 1.33645C15.9054 2.61541 12.0334 3.90875 8.15411 5.20208C8.08227 5.22364 8.01761 5.25957 7.88112 5.31705C8.05353 5.3889 8.16129 5.4392 8.27623 5.47512C12.0765 6.7469 15.8767 8.0115 19.6841 9.27609C19.8422 9.32639 20.0505 9.35513 20.2014 9.30483C24.1094 8.0115 28.0102 6.71098 31.911 5.41045C31.9613 5.39608 32.0044 5.37453 32.1553 5.31705C31.1783 4.98653 30.3018 4.68475 29.3823 4.37579C29.5116 3.99497 29.6266 3.6429 29.7559 3.2549C31.8033 3.93749 33.8075 4.60571 35.934 5.31705C35.2587 5.54697 34.6983 5.7266 34.1452 5.93497C34.0374 5.97809 33.8938 6.12897 33.8938 6.23675C33.8794 8.12646 33.8794 10.009 33.8794 11.9131C34.7127 12.222 35.3233 12.7825 35.3952 13.6806C35.4742 14.7512 35.4167 15.829 35.4167 16.9283H31.207C31.207 16.9283 31.1567 16.8924 31.1567 16.8708C31.1567 15.7787 31.1064 14.6865 31.1854 13.5944C31.2429 12.8471 31.753 12.337 32.4354 12.0137C32.5504 11.9562 32.6797 11.7765 32.6797 11.6544C32.6941 9.97305 32.6869 8.2989 32.6869 6.61757C32.6869 6.56727 32.6725 6.51698 32.6581 6.42357C31.9182 6.66786 31.1998 6.89779 30.4742 7.14209C30.0576 7.28579 29.4829 7.32172 29.2745 7.61631C29.059 7.93246 29.1883 8.48572 29.1883 8.93839C29.1883 11.6041 29.174 14.277 29.1955 16.9427C29.1955 17.3666 29.0447 17.5678 28.6927 17.7474C27.5073 18.351 26.243 18.6887 24.9499 18.8899C21.2574 19.4719 17.5649 19.4791 13.9083 18.6456C12.9601 18.43 12.0549 17.9989 11.1282 17.6612C10.8552 17.5606 10.769 17.3594 10.769 17.0505C10.7834 14.0183 10.769 10.9862 10.7834 7.95402C10.7834 7.65224 10.69 7.5229 10.4098 7.4295C8.44864 6.79001 6.49464 6.12897 4.53345 5.47512C4.41133 5.43201 4.28921 5.3889 4.08088 5.31705C4.26047 5.24519 4.36823 5.1949 4.48317 5.15897C9.48311 3.49201 14.4831 1.82504 19.4758 0.158074C19.5979 0.114963 19.7057 0.0502964 19.8206 0C19.9212 0 20.029 0 20.1295 0L20.1511 0.0071852ZM25.4743 14.8734H27.9599V13.7237H26.5806V12.5238H27.9671V7.98276C27.8091 8.03305 27.6869 8.06898 27.5648 8.11209C25.1654 8.90965 22.766 9.71439 20.3594 10.4976C20.1367 10.5694 19.8494 10.5694 19.6195 10.4976C17.1914 9.7072 14.7632 8.88809 12.3423 8.08335C12.2417 8.04742 12.1268 8.03305 12.0046 7.99713C11.9975 8.1049 11.9903 8.18394 11.9903 8.26298C11.9903 10.9934 11.9903 13.7309 11.9831 16.4613C11.9831 16.7846 12.1627 16.8565 12.3782 16.9427C13.9299 17.5463 15.5534 17.8265 17.1985 17.9702C19.0663 18.1283 20.9413 18.1354 22.8091 17.9702C24.4039 17.8265 25.9772 17.5678 27.4858 16.9858C28.0533 16.7703 28.0533 16.7631 27.9527 16.0805H25.4743V14.8734ZM34.2242 15.7284C34.2242 15.0602 34.2601 14.4422 34.2098 13.8171C34.1739 13.3285 33.7501 13.0268 33.2544 13.0411C32.7731 13.0483 32.3564 13.4004 32.3349 13.8746C32.3061 14.4854 32.3349 15.0961 32.3349 15.7284H34.2314H34.2242Z" fill="#259BD4"/>
<path d="M6.8682 35.2793V34.1656H8.01042V35.2793H6.8682Z" fill="#259BD4"/>
<path d="M9.23168 34.1512H10.3595V35.2721H9.23168V34.1512Z" fill="#259BD4"/>
<path d="M23.1467 14.9021H24.2674V16.0517H23.1467V14.9021Z" fill="#259BD4"/>
</g>
<defs>
<clipPath id="clip0_462_2787">
<rect width="40" height="40" fill="white"/>
</clipPath>
</defs>
</svg>
