<svg width="40" height="40" viewBox="0 0 40 40" fill="none" xmlns="http://www.w3.org/2000/svg">
<path d="M25.7183 0C27.3818 1.3271 28.2416 3.13084 28.7557 5.14019C29.1762 6.78505 29.3258 8.46729 29.2884 10.1682C29.2884 10.2991 29.2977 10.4766 29.3818 10.5607C29.9239 11.0935 29.9332 11.757 29.8117 12.4206C29.6061 13.514 29.1201 14.4299 28.0267 14.9065C27.9426 14.9439 27.8678 15.0748 27.8491 15.1682C27.522 16.7477 26.7556 18.0748 25.6528 19.2336C25.4566 19.4393 25.3912 19.6075 25.4846 19.8785C25.6248 20.3271 25.7183 20.785 25.8024 21.1215C26.1949 21.2991 26.5687 21.3832 26.8211 21.5981C27.9332 22.5327 29.2884 22.8037 30.6342 23.1402C33.5127 23.8505 35.3164 25.6542 35.9893 28.5607C36.0641 28.8879 36.1108 29.2336 36.1108 29.5607C36.1108 32.8037 36.1201 36.0467 36.1108 39.2897C36.1108 39.5047 35.9426 39.785 35.765 39.9159C35.6342 40.0093 35.3071 39.9907 35.1669 39.8785C35.008 39.757 34.8958 39.4953 34.8865 39.2897C34.8585 38.4206 34.8771 37.5421 34.8771 36.6729C34.8771 36.5421 34.8771 36.4206 34.8771 36.271H29.8771C29.8771 36.3925 29.8771 36.514 29.8771 36.6355C29.8771 37.5234 29.8771 38.4019 29.8771 39.2897C29.8771 39.729 29.6435 39.9907 29.2697 40C28.8771 40 28.6342 39.7477 28.6342 39.2897C28.6342 37.0654 28.6342 34.8411 28.6342 32.6075C28.6342 32.1402 28.8678 31.8785 29.2603 31.8785C29.6528 31.8785 29.8771 32.1402 29.8771 32.6075C29.8771 33.3832 29.8771 34.1682 29.8771 34.972H32.3818C32.3818 34.8037 32.3818 34.6355 32.3818 34.4766C32.3818 33.0093 32.3818 31.5327 32.3818 30.0654C32.3818 28.4019 31.4659 27.2243 29.8491 26.8131C28.765 26.5421 27.6809 26.2897 26.5968 26C26.3257 25.9252 26.1388 25.9626 25.9239 26.1402C24.3912 27.3458 22.6902 28.2243 20.8024 28.6916C20.6155 28.7383 20.3912 28.7383 20.1949 28.6916C18.2977 28.215 16.6061 27.3364 15.0734 26.1308C14.8678 25.972 14.6996 25.9252 14.4379 25.9907C13.2977 26.2991 12.1482 26.5607 11.008 26.8598C9.66219 27.215 8.71827 28.2523 8.66219 29.6355C8.58743 31.4019 8.6435 33.1682 8.6435 34.9626H11.1388C11.1388 34.1495 11.1388 33.3551 11.1388 32.5514C11.1388 32.0748 11.5033 31.7664 11.9239 31.8878C12.2136 31.972 12.3818 32.1776 12.3818 32.486C12.3818 34.7757 12.3818 37.0654 12.3818 39.3645C12.3818 39.7383 12.1201 39.9813 11.7743 39.9907C11.4099 39.9907 11.1482 39.7477 11.1388 39.3551C11.1388 38.3364 11.1388 37.3271 11.1388 36.2804H6.15753C6.15753 36.3925 6.13883 36.514 6.13883 36.6449C6.13883 37.5327 6.13883 38.4112 6.13883 39.2991C6.13883 39.7383 5.90518 39.9907 5.52201 40C5.13883 40 4.89584 39.7477 4.89584 39.3178C4.89584 36.0374 4.8678 32.757 4.90518 29.4766C4.94256 26.6075 7.17622 23.9439 10.0828 23.215C10.8491 23.0187 11.6528 22.9065 12.3818 22.6168C13.036 22.3645 13.6155 21.9159 14.2323 21.5701C14.5127 21.4112 14.8211 21.2991 15.2136 21.1215C15.3164 20.7196 15.4566 20.1963 15.5781 19.6729C15.5968 19.5794 15.55 19.4393 15.4846 19.3738C14.3164 18.1776 13.4846 16.7944 13.1575 15.1308C13.1388 15.028 12.9893 14.9159 12.8771 14.8598C11.6528 14.271 10.8584 12.5234 11.2416 11.2243C11.2884 11.0561 11.3631 10.8505 11.494 10.7477C11.7837 10.5234 11.7837 10.2336 11.7837 9.91589C11.7743 8.71028 11.7463 7.49533 12.0734 6.30841C12.7463 3.88785 14.3538 2.48598 16.793 2.05607C17.7183 1.8972 18.6809 1.91589 19.6248 1.8785C20.8304 1.83178 22.0454 1.85047 23.2229 1.50467C23.9332 1.29907 24.5313 0.934579 24.9706 0.327103C25.0641 0.205607 25.1856 0.11215 25.2977 0C25.4566 0 25.6061 0 25.765 0H25.7183ZM16.0454 7.81308C15.8117 9.02804 15.3257 10.1215 14.5594 11.0748C14.3164 11.3832 14.1949 11.6729 14.2229 12.0654C14.307 13.1121 14.2042 14.2056 14.4566 15.1963C15.0921 17.6822 16.793 19.2991 19.1108 20.3084C19.9986 20.7009 20.9052 20.7103 21.8024 20.3458C23.8865 19.514 25.3631 18.0561 26.2603 16C26.7557 14.8692 26.6902 13.6729 26.7463 12.4766C26.793 11.4206 26.4472 10.5234 25.9706 9.63551C25.7557 9.2243 25.4472 8.94392 24.9893 8.88785C23.7276 8.71963 22.4659 8.5514 21.2042 8.42991C19.4846 8.27103 17.7557 8.25234 16.036 7.80374L16.0454 7.81308ZM25.5407 1.5514C24.8398 2.24299 24.0267 2.65421 23.1108 2.80374C22.2323 2.95327 21.3351 3.04673 20.4379 3.1028C19.4566 3.16822 18.4566 3.13084 17.4753 3.19626C15.2323 3.35514 13.6528 4.66355 13.2042 6.85981C12.9986 7.85981 13.0454 8.89719 12.9706 9.92523C12.9519 10.1308 12.9893 10.2804 13.2323 10.3645C13.5033 10.4579 13.5781 10.2897 13.6902 10.1308C14.3818 9.15888 14.8117 8.08411 14.8585 6.8785C14.8772 6.35514 15.3257 6.11215 15.8024 6.3271C16.1201 6.46729 16.4472 6.63551 16.7837 6.69159C17.6529 6.83178 18.5314 6.94393 19.4099 7.03738C21.1295 7.20561 22.8585 7.33645 24.5781 7.51402C25.8771 7.64486 26.8585 8.26168 27.3444 9.53271C27.4192 9.72897 27.494 9.92523 27.6061 10.1028C27.6622 10.1963 27.7743 10.243 27.8584 10.3178C27.9052 10.2243 27.9893 10.1308 27.9986 10.0374C28.0454 8.1028 27.8304 6.19626 27.1949 4.35514C26.8398 3.3271 26.3444 2.37383 25.5501 1.56075L25.5407 1.5514ZM16.6809 20.3645C16.5127 20.9813 16.4099 21.5514 16.2043 22.0748C16.0921 22.3832 16.1575 22.5327 16.3912 22.7196C17.5687 23.6636 18.9145 24.3084 20.3071 24.8598C20.4005 24.8972 20.5407 24.9065 20.6342 24.8598C21.9426 24.3458 23.2136 23.7477 24.3351 22.8878C24.8585 22.486 24.8491 22.486 24.6809 21.8692C24.55 21.4019 24.4379 20.9252 24.2977 20.3832C21.7556 22.3364 19.2323 22.2991 16.6809 20.3551V20.3645ZM7.36313 34.9813C7.36313 33.2804 7.36313 31.6355 7.36313 29.9813C7.36313 27.8318 8.64351 26.1682 10.7276 25.6168C11.6715 25.3738 12.6248 25.1308 13.6248 24.8785C13.3631 24.5794 13.1201 24.3271 12.9145 24.0467C12.7837 23.8692 12.6529 23.8411 12.4472 23.8972C11.7837 24.0748 11.1108 24.2243 10.4472 24.4112C7.74631 25.1402 6.11079 27.271 6.10144 30.0654C6.10144 31.5794 6.10144 33.0841 6.10144 34.5981C6.10144 34.7196 6.11079 34.8505 6.12014 34.9813H7.36313ZM34.8491 34.9813C34.8491 33.1589 34.9145 31.3738 34.8304 29.5888C34.737 27.5981 33.7743 26.0561 32.0547 25.028C30.9145 24.3458 29.5968 24.215 28.3538 23.8785C28.2977 23.8598 28.1949 23.9065 28.1575 23.9533C27.8958 24.2523 27.6342 24.5607 27.3538 24.8879C28.3444 25.1402 29.2977 25.3738 30.251 25.6262C32.3164 26.1682 33.6061 27.8318 33.6061 29.9533C33.6061 31.486 33.6061 33.028 33.6061 34.5607C33.6061 34.7009 33.6061 34.8411 33.6061 34.9813H34.8491ZM26.3351 22.785C25.98 23.1215 25.6809 23.4486 25.3444 23.7196C23.9706 24.8411 22.3725 25.5701 20.7276 26.1869C20.5687 26.2523 20.3351 26.2243 20.1669 26.1589C18.1388 25.3645 16.1575 24.4766 14.6529 22.7664C14.5314 22.8505 14.4099 22.9252 14.2977 23C14.1762 23.0841 14.0547 23.1776 13.9145 23.271C15.6715 25.2804 17.765 26.6729 20.3071 27.3925C20.4566 27.4393 20.6435 27.4019 20.8024 27.3551C22.6435 26.8318 24.279 25.9159 25.7089 24.6449C26.1856 24.2243 26.6248 23.7477 27.1108 23.271C26.8117 23.0748 26.5874 22.9252 26.3538 22.7664L26.3351 22.785ZM12.4659 11.486C12.2416 12.0654 12.5127 13 12.9799 13.3178C12.9799 12.8692 12.9613 12.4206 12.9799 11.9813C13.008 11.5888 12.8211 11.4766 12.4566 11.486H12.4659ZM27.9799 13.4206C28.4192 12.8972 28.5874 12.3832 28.5874 11.8318C28.5874 11.7196 28.4379 11.5047 28.3444 11.5047C28.1669 11.4953 27.9613 11.5514 27.9706 11.8318C27.9893 12.3178 27.9706 12.8131 27.9706 13.4206H27.9799Z" fill="#259BD4"/>
<path d="M25.5407 31.8692C26.5781 31.8878 27.3818 32.7383 27.3631 33.8037C27.3444 34.8224 26.494 35.6262 25.4566 35.6168C24.4192 35.6168 23.6061 34.757 23.6155 33.7009C23.6248 32.6636 24.4753 31.8598 25.5407 31.8692ZM26.1108 33.7477C26.1108 33.4299 25.8211 33.1215 25.494 33.1215C25.1762 33.1215 24.8678 33.4112 24.8678 33.7383C24.8678 34.0561 25.1575 34.3645 25.4753 34.3645C25.793 34.3645 26.1014 34.0748 26.1014 33.7477H26.1108Z" fill="#259BD4"/>
<path d="M22.0173 5.61682C21.9145 5.61682 21.8117 5.61682 21.7089 5.61682C21.3631 5.58879 21.1201 5.35514 21.1108 5.01869C21.1015 4.6729 21.3351 4.42056 21.6996 4.37383C22.2136 4.30841 22.7463 4.29907 23.2229 4.13084C23.6248 3.99065 23.9986 3.68224 24.3257 3.39252C24.6248 3.13084 24.9426 3.03738 25.2323 3.25234C25.522 3.46729 25.5781 3.82243 25.3444 4.14953C24.7557 5 23.8772 5.34579 22.9052 5.53271C22.6155 5.58879 22.3164 5.60748 22.0173 5.63551C22.0173 5.63551 22.0173 5.62617 22.0173 5.61682Z" fill="#259BD4"/>
</svg>
